<svg id="Layer_35" enable-background="new 0 0 64 64" height="512" viewBox="0 0 64 64" width="512" xmlns="http://www.w3.org/2000/svg"><g fill="#f0bc5e"><path d="m11.692 16.085-.692 8.915 2 2 2-2-.692-8.915z"/><path d="m59 23h-6v-5h-2v-4h-2v-8h10z"/><path d="m31 54h6v-5h2v-4h2v-8h-10z"/></g><path d="m17.223 15.782c2.263-1.415 3.777-3.922 3.777-6.782 0-4.411-3.589-8-8-8s-8 3.589-8 8c0 2.86 1.514 5.367 3.777 6.782-4.536 1.714-7.777 6.089-7.777 11.218v8c0 2.206 1.794 4 4 4h1v20c0 2.206 1.794 4 4 4 1.2 0 2.266-.542 3-1.382.734.84 1.8 1.382 3 1.382 2.206 0 4-1.794 4-4v-20h1c2.206 0 4-1.794 4-4v-8c0-5.129-3.241-9.504-7.777-11.218zm-10.223-6.782c0-3.309 2.691-6 6-6s6 2.691 6 6-2.691 6-6 6-6-2.691-6-6zm16 26c0 1.103-.897 2-2 2h-1v-14h-2v36c0 1.103-.897 2-2 2s-2-.897-2-2v-25h-2v25c0 1.103-.897 2-2 2s-2-.897-2-2v-36h-2v14h-1c-1.103 0-2-.897-2-2v-8c0-5.514 4.486-10 10-10s10 4.486 10 10z"/><path d="m49 5h10v2h-10z"/><path d="m49 9h10v2h-10z"/><path d="m49 13h10v2h-10z"/><path d="m51 17h8v2h-8z"/><path d="m57 21h2v2h-2z"/><path d="m53 21h2v2h-2z"/><path d="m58 1h-26c-2.757 0-5 2.243-5 5v16c0 2.757 2.243 5 5 5h5v4.868l7.303-4.868h13.697c2.757 0 5-2.243 5-5v-16c0-2.757-2.243-5-5-5zm-14.303 24-4.697 3.132v-3.132h-5.92c.488-3.386 3.401-6 6.92-6h2c3.519 0 6.432 2.614 6.92 6zm-2.697-8c-2.206 0-4-1.794-4-4s1.794-4 4-4 4 1.794 4 4-1.794 4-4 4zm20 5c0 1.654-1.346 3-3 3h-7.059c-.388-3.489-2.779-6.374-5.992-7.494 1.254-1.1 2.051-2.71 2.051-4.506 0-3.309-2.691-6-6-6s-6 2.691-6 6c0 1.796.797 3.406 2.051 4.506-3.164 1.102-5.526 3.918-5.968 7.335-1.204-.389-2.083-1.508-2.083-2.841v-16c0-1.654 1.346-3 3-3h26c1.654 0 3 1.346 3 3z"/><path d="m31 5h2v2h-2z"/><path d="m31 9h2v2h-2z"/><path d="m31 13h2v2h-2z"/><path d="m31 36h10v2h-10z"/><path d="m31 40h10v2h-10z"/><path d="m31 44h10v2h-10z"/><path d="m31 48h8v2h-8z"/><path d="m31 52h2v2h-2z"/><path d="m35 52h2v2h-2z"/><path d="m58 32h-26c-2.757 0-5 2.243-5 5v16c0 2.757 2.243 5 5 5h13.697l7.303 4.868v-4.868h5c2.757 0 5-2.243 5-5v-16c0-2.757-2.243-5-5-5zm-7 24v3.132l-4.697-3.132h-5.223c.488-3.386 3.401-6 6.92-6h2c3.519 0 6.432 2.614 6.92 6zm-2-8c-2.206 0-4-1.794-4-4s1.794-4 4-4 4 1.794 4 4-1.794 4-4 4zm12 5c0 1.333-.879 2.452-2.083 2.842-.442-3.417-2.804-6.233-5.968-7.335 1.254-1.101 2.051-2.711 2.051-4.507 0-3.309-2.691-6-6-6s-6 2.691-6 6c0 1.796.797 3.406 2.051 4.506-3.214 1.119-5.605 4.005-5.992 7.494h-7.059c-1.654 0-3-1.346-3-3v-16c0-1.654 1.346-3 3-3h26c1.654 0 3 1.346 3 3z"/><path d="m57 36h2v2h-2z"/><path d="m57 40h2v2h-2z"/><path d="m57 44h2v2h-2z"/></svg>